<!DOCTYPE svg PUBLIC "-//W3C//DTD SVG 20010904//EN" "http://www.w3.org/TR/2001/REC-SVG-20010904/DTD/svg10.dtd">
<svg version="1.0" xmlns="http://www.w3.org/2000/svg" width="1280px" height="1280px" viewBox="0 0 12800 12800" preserveAspectRatio="xMidYMid meet">

<g id="layer2" fill="#fdfdfd" stroke="none">
  <path d="M6135 12313 c-451 -27 -908 -95 -1314 -194 -106 -26 -227 -64 -240 -75 -1 -1 5 -27 15 -56 15 -47 16 -61 5 -128 -20 -114 -58 -238 -96 -306 -43 -76 -150 -179 -275 -263 -52 -35 -166 -116 -254 -180 -261 -192 -401 -292 -508 -366 -248 -171 -545 -411 -648 -522 -136 -147 -170 -216 -394 -803 -50 -132 -78 -204 -198 -505 -97 -246 -159 -437 -200 -622 -20 -88 -22 -124 -21 -348 1 -174 7 -282 18 -355 9 -58 22 -162 30 -232 7 -69 21 -173 29 -230 9 -56 22 -184 31 -283 28 -353 82 -499 193 -527 141 -36 250 220 296 692 15 147 47 736 46 847 0 65 -26 97 -141 178 -91 64 -125 115 -115 173 12 77 101 231 297 512 36 52 103 163 149 245 144 263 233 381 321 425 102 53 88 -12 -33 -148 -71 -79 -145 -191 -268 -401 -56 -96 -138 -231 -183 -300 -167 -258 -198 -349 -137 -409 40 -41 91 -57 175 -56 168 1 352 109 585 343 154 156 256 282 413 515 175 259 313 398 447 450 24 10 161 42 305 73 306 64 456 105 609 167 262 106 465 250 661 469 87 97 140 174 245 352 225 382 311 614 341 916 11 110 10 149 -4 290 -10 90 -24 203 -31 250 -8 48 -20 162 -27 253 l-13 166 -30 -2 c-17 -1 -53 -3 -81 -5z"/>
 <path d="M6630 12266 c0 -73 -17 -227 -60 -546 -23 -173 -25 -299 -5 -439 38 -268 125 -488 333 -841 136 -232 203 -320 354 -468 204 -199 441 -332 758 -426 146 -43 132 -39 350 -86 385 -81 410 -90 508 -174 103 -88 175 -178 329 -406 128 -189 247 -335 394 -480 197 -196 354 -297 508 -327 75 -15 85 -15 146 2 79 21 125 65 125 121 0 36 -44 144 -84 204 -92 141 -195 307 -266 430 -107 187 -184 302 -281 418 -69 83 -99 135 -85 149 12 12 70 -12 114 -46 64 -51 142 -163 252 -361 50 -91 123 -212 162 -270 39 -58 105 -154 145 -215 118 -174 170 -289 158 -346 -9 -40 -65 -102 -130 -144 -123 -78 -129 -93 -120 -290 14 -336 36 -719 45 -788 39 -308 95 -497 174 -581 39 -42 46 -46 90 -46 60 0 94 23 128 87 51 96 82 240 93 438 4 61 17 187 30 280 13 94 26 206 30 250 4 44 13 116 21 160 8 44 20 183 26 309 11 204 10 241 -5 346 -29 197 -97 430 -207 705 -70 173 -148 372 -164 415 -7 19 -49 130 -94 245 -183 475 -219 542 -372 696 -111 112 -386 334 -567 459 -59 41 -229 162 -376 270 -148 107 -328 236 -400 285 -167 114 -283 226 -325 315 -35 72 -92 285 -92 341 0 20 7 56 15 79 8 24 14 45 12 47 -11 11 -137 48 -261 78 -416 100 -818 159 -1303 190 l-103 7 0 -46z"/>
 <path d="M5123 8391 c-138 -51 -248 -189 -342 -430 -102 -261 -143 -521 -161 -1026 -21 -600 -57 -836 -166 -1119 -31 -78 -68 -175 -84 -216 -15 -41 -50 -131 -78 -200 -106 -266 -250 -693 -268 -795 -3 -22 -11 -48 -16 -57 -4 -10 -20 -73 -35 -140 -24 -109 -27 -144 -26 -313 0 -173 2 -199 26 -288 43 -160 90 -242 207 -356 130 -127 378 -245 613 -291 124 -25 351 -36 435 -21 34 6 90 16 125 21 87 15 257 63 427 122 214 74 270 92 461 147 307 88 451 112 834 137 244 16 372 15 403 -5 20 -12 2 -41 -25 -41 -14 0 -37 -8 -51 -19 -32 -22 -168 -53 -376 -87 -170 -27 -226 -41 -226 -54 0 -18 75 -53 220 -101 83 -27 182 -56 218 -63 645 -133 1212 1 1472 346 143 189 195 483 141 800 -39 227 -155 614 -263 873 -11 28 -37 95 -58 150 -20 55 -71 186 -112 290 -88 221 -133 356 -147 440 -36 207 -51 337 -61 545 -6 129 -15 282 -21 339 -5 58 -9 135 -9 172 0 37 -7 123 -15 191 -9 67 -22 177 -31 243 -27 227 -83 433 -145 542 -43 75 -147 183 -207 216 -97 53 -239 54 -327 2 -94 -55 -230 -249 -301 -430 -15 -38 -33 -79 -41 -91 -14 -22 -177 -511 -213 -639 -35 -126 -112 -296 -163 -363 -93 -120 -119 -205 -77 -250 49 -52 165 -63 402 -36 77 8 143 12 146 9 12 -11 -62 -74 -117 -99 -302 -135 -668 -53 -902 202 -79 86 -132 175 -176 297 -72 197 -101 278 -151 420 -230 654 -252 706 -347 840 -115 162 -264 233 -392 186z m1307 -2501 l0 -149 30 -16 c16 -8 46 -29 65 -46 28 -25 35 -38 35 -68 0 -55 -12 -68 -43 -48 -14 9 -39 31 -56 49 l-31 33 0 -27 c0 -22 10 -34 53 -62 73 -46 97 -79 97 -130 0 -23 -6 -50 -13 -59 -11 -16 -15 -16 -59 -1 -42 14 -47 19 -50 50 -4 47 -22 48 -26 1 -3 -37 -3 -37 63 -67 115 -51 165 -103 165 -168 0 -42 -64 -120 -100 -122 -8 -1 1 -9 20 -20 48 -25 94 -69 114 -107 34 -67 9 -181 -37 -169 -12 3 -46 11 -75 18 -51 11 -53 13 -46 37 4 14 7 37 7 50 -1 27 -47 76 -81 86 -23 7 -23 6 -20 -86 l3 -92 107 -18 c218 -37 349 -146 317 -264 -19 -68 -85 -100 -204 -100 -127 1 -189 67 -127 138 27 31 93 19 164 -30 31 -21 41 -23 53 -13 22 18 18 44 -10 78 -39 46 -116 75 -217 80 l-88 4 0 -261 0 -261 -30 0 -30 0 0 259 0 259 -72 22 c-149 44 -201 95 -202 195 -1 50 4 69 26 102 14 22 40 46 57 53 28 11 36 10 86 -15 30 -16 55 -30 55 -32 0 -2 -13 -22 -30 -45 -52 -71 -31 -138 48 -154 l32 -6 0 110 0 110 -57 23 c-161 64 -211 137 -162 236 36 72 89 82 153 29 l29 -24 -22 -27 c-28 -37 -27 -69 5 -94 48 -37 54 -30 53 62 l-1 83 -61 29 c-81 39 -111 82 -103 145 4 25 15 54 26 65 20 19 20 19 56 0 34 -18 35 -21 29 -61 -5 -36 -3 -44 14 -53 35 -19 43 -13 40 32 -3 58 -12 71 -64 101 -51 30 -64 61 -45 106 13 32 55 64 70 55 6 -3 10 -24 10 -46 0 -64 24 -43 28 23 l3 55 -68 25 c-65 24 -95 49 -80 64 4 4 35 -2 70 -14 67 -24 78 -26 76 -14 -1 4 -1 62 0 130 l1 122 25 0 25 0 0 -150z m-230 -1195 c18 -13 48 -29 67 -36 46 -15 34 -25 -37 -33 -76 -9 -122 -28 -149 -62 -25 -32 -26 -47 -6 -64 12 -10 21 -8 50 10 50 31 148 39 175 15 11 -10 20 -24 20 -32 0 -33 -31 -71 -70 -87 -45 -18 -147 -21 -199 -6 -44 12 -98 64 -106 102 -14 61 65 163 156 202 47 21 60 20 99 -9z m160 -397 c0 -110 -1 -118 -20 -118 -33 0 -68 -22 -80 -50 -7 -16 -27 -35 -49 -45 -41 -18 -27 -21 -191 40 -55 21 -214 35 -385 35 -166 0 -176 4 -135 48 27 29 62 37 101 23 45 -16 49 -14 49 18 0 39 21 54 86 59 46 4 58 9 72 31 37 58 80 66 158 26 27 -14 50 -21 52 -17 12 34 20 36 72 23 65 -17 128 -8 176 26 51 34 77 43 86 29 4 -6 8 -64 8 -128z m186 100 c60 -39 134 -48 193 -25 39 16 39 16 45 -8 8 -31 29 -32 67 -4 17 12 48 23 69 26 37 5 43 2 80 -38 22 -24 48 -44 58 -45 9 -1 31 -2 49 -3 39 -1 63 -24 56 -51 -7 -27 21 -36 62 -21 41 15 80 -1 100 -39 l14 -27 -197 -6 c-233 -7 -312 -19 -399 -58 -94 -42 -117 -39 -173 20 -28 30 -58 51 -78 55 l-32 8 0 108 c0 156 4 161 86 108z m-86 -324 c112 -32 79 -214 -40 -214 -77 0 -131 68 -110 141 12 40 28 59 65 75 29 13 35 13 85 -2z"/>
 <path d="M6430 5171 l0 -88 29 -6 c16 -3 42 -9 57 -12 l29 -6 -27 16 c-33 18 -33 23 -12 69 21 43 13 76 -25 99 -48 28 -51 24 -51 -72z"/>
 <path d="M1320 6085 c-91 -13 -276 -38 -411 -56 l-247 -32 5 -41 c6 -52 22 -149 25 -151 3 -3 264 31 318 40 49 9 33 -3 -91 -69 -218 -115 -209 -109 -208 -136 0 -14 6 -62 12 -108 l12 -82 165 105 c160 103 166 106 210 100 47 -5 194 -32 385 -70 61 -12 111 -21 113 -19 2 1 -2 49 -9 107 -11 103 -12 106 -38 111 -14 2 -80 12 -146 21 -156 22 -152 21 -129 46 29 32 43 37 156 50 58 6 110 14 116 18 9 6 6 45 -13 159 -7 39 3 38 -225 7z"/>
 <path d="M11287 6096 c-9 -23 -60 -437 -54 -442 6 -6 48 -12 511 -73 237 -31 359 -44 362 -37 4 13 42 297 50 381 l7 61 -86 9 -85 10 -11 -100 c-19 -156 -15 -148 -75 -141 -28 4 -66 9 -85 13 l-33 6 6 51 c3 28 9 76 12 107 l7 56 -83 12 c-45 7 -83 11 -84 9 -2 -2 -8 -47 -15 -102 -6 -54 -14 -102 -16 -106 -3 -4 -24 -4 -47 1 -24 4 -61 8 -83 9 -65 1 -66 2 -50 125 21 155 25 142 -47 150 -35 3 -70 8 -79 11 -9 3 -19 -2 -22 -10z"/>
 <path d="M11206 5558 c-13 -42 -36 -150 -36 -168 0 -27 32 -40 185 -75 148 -33 165 -43 165 -93 0 -20 -4 -42 -8 -49 -5 -8 -53 -1 -177 28 -94 21 -177 39 -187 39 -12 0 -21 -21 -37 -92 -12 -50 -18 -95 -14 -98 11 -10 846 -200 851 -195 8 8 61 237 72 312 25 163 -43 241 -221 251 l-86 5 -39 -36 -38 -35 -16 47 c-20 60 -57 80 -214 115 -65 15 -134 33 -153 41 -43 18 -43 18 -47 3z m617 -347 c15 -6 31 -21 36 -34 10 -26 -1 -93 -15 -91 -5 1 -49 10 -97 20 l-89 19 6 40 c4 22 14 46 24 53 19 15 87 11 135 -7z"/>
 <path d="M1527 5450 c-68 -54 -25 -160 64 -160 29 0 79 53 79 84 0 80 -82 124 -143 76z"/>
 <path d="M1265 5083 c-225 -74 -411 -137 -413 -138 -1 -1 23 -76 54 -166 110 -322 132 -329 546 -190 146 49 250 89 272 106 44 34 76 101 76 162 0 54 -98 363 -115 363 -5 0 -194 -62 -420 -137z m359 -125 c11 -41 6 -75 -11 -90 -23 -20 -434 -158 -471 -158 -31 0 -65 30 -76 67 -6 19 3 24 121 64 70 24 191 64 268 90 77 26 145 48 151 48 7 1 14 -9 18 -21z"/>
 <path d="M10999 4843 c-6 -16 -19 -50 -29 -78 -10 -27 -21 -57 -24 -66 -6 -13 15 -24 106 -59 259 -99 542 -210 546 -215 3 -2 -5 -30 -17 -61 -11 -31 -21 -57 -21 -59 0 -2 12 -7 28 -13 15 -5 50 -19 78 -30 l51 -21 56 142 c86 220 109 289 100 297 -10 9 -145 62 -147 58 -2 -2 -11 -25 -21 -53 -9 -27 -21 -53 -25 -58 -6 -7 -102 28 -548 199 -63 24 -116 44 -118 44 -3 0 -9 -12 -15 -27z"/>
 <path d="M1811 4599 c-35 -33 -43 -65 -27 -104 39 -91 166 -64 166 36 0 71 -89 115 -139 68z"/>
 <path d="M10830 4413 c-22 -43 -43 -87 -46 -99 -4 -17 30 -55 181 -200 103 -98 191 -180 196 -182 5 -2 9 -8 9 -13 0 -5 -106 45 -236 112 -129 66 -237 119 -239 117 -8 -9 -86 -170 -83 -173 3 -2 97 -51 549 -284 119 -61 222 -111 228 -111 6 0 32 43 58 95 l48 95 -190 191 -190 191 226 -116 c171 -87 229 -112 237 -103 14 17 84 159 80 162 -11 9 -770 395 -777 395 -6 0 -28 -35 -51 -77z"/>
 <path d="M2089 4122 c-13 -10 -80 -53 -149 -97 -69 -43 -161 -102 -205 -130 -44 -28 -140 -89 -213 -135 -73 -45 -135 -87 -138 -92 -3 -5 5 -26 19 -46 13 -20 56 -86 95 -147 39 -60 80 -118 91 -127 61 -52 135 -61 211 -27 61 28 434 265 466 298 66 65 76 166 24 258 -51 90 -163 263 -171 263 -3 0 -17 -8 -30 -18z m48 -289 c13 -53 -1 -66 -204 -195 -109 -69 -206 -128 -216 -131 -26 -9 -62 8 -85 40 l-21 29 172 109 c95 60 206 131 247 157 70 45 76 47 88 31 7 -10 15 -28 19 -40z"/>
 <path d="M10518 3843 c-24 -32 -51 -69 -61 -83 -9 -14 -50 -72 -91 -129 l-75 -105 37 -26 c20 -15 129 -94 242 -175 113 -81 254 -184 314 -227 60 -44 114 -82 120 -84 6 -2 52 53 101 123 50 70 107 149 128 177 20 28 37 53 37 57 0 8 -104 87 -124 95 -12 5 -72 -67 -137 -166 l-17 -25 -71 49 c-39 26 -71 50 -71 53 0 6 91 134 107 151 7 7 13 17 13 22 0 8 -122 100 -133 100 -2 0 -33 -38 -67 -85 -38 -53 -66 -83 -73 -79 -53 30 -146 108 -140 117 3 7 29 44 58 82 96 130 93 112 27 160 -31 23 -62 44 -69 48 -7 5 -28 -15 -55 -50z"/>
 <path d="M2125 3350 c-187 -148 -339 -275 -339 -283 1 -12 176 -241 245 -320 l26 -30 66 52 67 53 -63 79 c-77 100 -91 119 -86 122 2 2 30 24 62 50 33 26 62 47 67 47 6 0 107 -118 132 -153 5 -9 138 87 138 99 0 2 -30 40 -66 85 -36 45 -62 85 -57 89 27 26 138 110 144 110 4 0 40 -43 81 -95 40 -52 77 -94 81 -95 11 0 127 91 127 99 0 8 -234 309 -263 338 l-22 22 -340 -269z"/>
 <path d="M10184 3351 c-70 -18 -145 -85 -190 -171 -27 -51 -25 -152 4 -206 28 -55 374 -360 452 -400 46 -23 144 -23 190 1 96 50 171 162 172 257 1 87 -30 142 -116 211 l-39 31 -68 -74 -68 -75 59 -55 c33 -31 60 -59 60 -64 0 -12 -22 -50 -34 -58 -36 -24 -53 -11 -383 280 -77 68 -89 94 -55 125 36 33 69 19 155 -62 l38 -36 25 32 c14 18 43 51 64 75 22 24 39 48 39 53 0 13 -101 95 -145 118 -41 21 -116 29 -160 18z"/>
 <path d="M2774 3136 c-57 -62 -306 -328 -390 -416 -40 -41 -94 -99 -122 -129 l-49 -53 74 -72 c41 -39 79 -73 84 -74 6 -2 60 24 122 59 62 34 128 71 147 82 94 52 148 82 180 100 40 24 42 26 -190 -221 -69 -74 -125 -137 -125 -142 0 -4 31 -36 68 -70 l68 -63 82 89 c45 49 154 165 243 259 194 205 268 285 272 294 2 7 -122 131 -146 145 -7 4 -40 -9 -80 -32 -162 -94 -408 -235 -417 -240 -5 -2 17 24 50 59 167 176 226 238 268 285 l46 50 -67 67 c-37 37 -70 67 -73 67 -3 0 -23 -20 -45 -44z"/>
 <path d="M9474 2694 c-87 -69 -163 -129 -167 -133 -5 -5 40 -68 98 -142 58 -74 154 -195 212 -269 59 -74 134 -170 167 -212 34 -42 64 -76 68 -75 4 1 41 29 82 61 l74 60 -61 78 c-34 43 -84 107 -112 142 -27 35 -98 125 -157 200 -60 75 -108 139 -108 143 0 5 24 25 53 46 28 21 66 50 83 65 l32 27 -52 67 -52 66 -160 -124z"/>
 <path d="M3358 2627 c-19 -23 -59 -73 -89 -112 -81 -102 -197 -250 -263 -333 l-57 -73 -27 21 c-15 11 -39 29 -53 40 l-27 20 -52 -67 -51 -67 33 -28 c18 -15 67 -54 108 -85 41 -32 107 -84 146 -115 39 -32 73 -58 76 -58 4 0 30 30 58 66 l53 65 -24 17 c-13 9 -36 28 -52 42 l-29 25 103 130 c57 72 146 184 199 250 52 66 105 134 116 150 l21 30 -78 62 -78 63 -33 -43z"/>
 <path d="M9175 2464 c-38 -25 -76 -49 -84 -53 -11 -7 -7 -22 20 -81 l33 -73 -23 -16 c-14 -9 -41 -26 -61 -38 l-36 -22 -48 60 c-26 32 -51 59 -54 59 -4 0 -44 -24 -89 -53 l-82 -53 294 -320 c162 -175 301 -323 309 -328 10 -7 44 10 122 59 60 38 111 70 112 71 2 1 -53 146 -123 321 -69 175 -143 360 -164 412 -21 52 -42 96 -47 98 -5 1 -40 -18 -79 -43z m133 -541 c51 -102 91 -188 89 -189 -2 -2 -19 16 -38 40 -18 24 -78 98 -133 165 -54 67 -97 123 -95 125 9 8 74 46 79 46 3 0 47 -84 98 -187z"/>
 <path d="M3620 2428 c-18 -50 -151 -430 -160 -458 -5 -14 -33 -97 -64 -184 -31 -88 -55 -163 -54 -167 3 -9 230 -141 233 -137 2 4 290 345 328 388 16 19 74 88 129 152 54 64 103 120 108 123 6 3 10 10 10 15 0 8 -165 110 -178 110 -4 0 -22 -23 -41 -50 -52 -77 -53 -77 -118 -40 -32 18 -59 33 -60 34 -2 1 11 35 28 75 17 40 29 74 27 76 -9 7 -166 95 -171 95 -3 0 -10 -15 -17 -32z m150 -410 c0 -9 -239 -348 -245 -348 -2 0 7 24 19 53 13 28 51 118 86 200 l62 147 39 -22 c21 -12 39 -26 39 -30z"/>
 <path d="M4174 2063 c-20 -43 -42 -91 -49 -108 -8 -16 -75 -163 -150 -325 l-135 -295 87 -42 c49 -23 91 -42 94 -42 4 -1 28 47 54 107 27 59 70 153 97 210 26 57 48 105 48 107 0 1 24 52 53 113 l53 111 98 -45 c54 -25 99 -44 101 -42 10 12 65 130 65 141 0 12 -103 63 -328 164 l-53 23 -35 -77z"/>
 <path d="M8488 2095 c-123 -45 -192 -132 -192 -240 0 -62 1 -65 145 -372 21 -45 44 -97 52 -115 20 -48 73 -106 118 -129 115 -58 304 12 365 137 23 46 26 64 21 112 -6 64 -50 172 -69 171 -7 0 -50 -19 -95 -42 l-83 -42 31 -65 c33 -71 30 -103 -13 -119 -39 -14 -64 7 -101 88 -199 429 -201 436 -144 455 41 15 57 1 99 -84 22 -42 43 -74 50 -72 7 2 33 12 58 23 25 11 62 28 83 37 l38 17 -39 80 c-43 87 -87 135 -144 159 -45 19 -130 20 -180 1z"/>
 <path d="M8023 1882 c-46 -14 -83 -31 -83 -38 0 -11 269 -825 275 -832 1 -1 45 12 97 29 l94 32 -139 419 c-81 244 -143 418 -150 417 -7 0 -49 -13 -94 -27z"/>
 <path d="M5035 1801 c-46 -12 -70 -27 -107 -70 -89 -104 -88 -286 2 -391 16 -19 30 -38 30 -41 0 -3 -12 -16 -26 -30 -96 -89 -115 -223 -43 -297 44 -45 96 -66 174 -70 57 -2 76 1 103 17 92 58 106 198 31 316 l-29 46 51 55 c29 30 54 52 57 49 3 -3 6 -35 7 -72 l1 -67 50 -13 c27 -7 61 -13 77 -13 l27 0 0 93 c0 81 -13 158 -34 207 -4 10 15 39 59 87 36 39 65 75 65 80 0 5 -40 18 -90 29 l-90 21 -21 -23 -21 -23 -25 29 c-48 58 -176 99 -248 81z m143 -181 c17 -11 32 -25 32 -31 0 -17 -132 -160 -143 -156 -6 2 -17 22 -24 44 -20 59 -3 117 40 143 40 25 54 25 95 0z m-90 -485 c24 -52 7 -105 -31 -105 -52 0 -62 51 -21 99 31 38 38 38 52 6z"/>
 <path d="M7498 1742 c-86 -20 -159 -40 -162 -43 -3 -3 -1 -21 5 -40 5 -19 16 -61 23 -94 35 -157 147 -645 157 -682 7 -24 16 -43 21 -43 14 0 257 60 313 77 101 31 145 87 145 184 0 46 -34 211 -92 449 -31 129 -55 167 -128 205 -57 30 -115 27 -282 -13z m175 -144 c16 -12 35 -85 101 -375 15 -61 26 -116 26 -122 0 -15 -49 -61 -65 -61 -7 0 -20 -3 -28 -6 -11 -4 -17 5 -22 38 -3 24 -13 68 -20 98 -8 30 -33 138 -56 239 -45 200 -45 201 17 201 16 0 38 -6 47 -12z"/>
 <path d="M7145 1669 c-33 -5 -112 -16 -175 -24 -63 -9 -132 -18 -154 -21 l-38 -6 7 -52 c3 -28 19 -150 35 -271 16 -121 36 -272 45 -335 8 -63 18 -139 21 -167 5 -40 11 -53 23 -52 9 0 108 12 221 28 l205 27 -3 80 c-2 43 -7 82 -10 86 -4 3 -52 0 -107 -7 -155 -21 -141 -28 -153 67 -6 46 -9 84 -7 86 2 2 50 10 106 18 57 8 104 15 104 17 2 2 -17 161 -20 165 -1 1 -49 -5 -105 -13 -77 -12 -105 -13 -111 -4 -3 6 -10 43 -13 83 -4 39 -9 78 -12 87 -3 13 17 18 122 32 70 9 128 18 130 19 1 2 -2 40 -8 86 -8 65 -14 82 -27 81 -9 -1 -43 -5 -76 -10z"/>
 <path d="M5920 1593 c-1 -16 -7 -212 -14 -438 -8 -226 -12 -412 -9 -415 2 -3 75 -5 161 -5 l156 0 36 210 c39 236 39 236 60 -20 5 -71 13 -146 16 -166 l5 -36 157 -5 c86 -3 159 -4 161 -2 3 3 8 127 12 277 4 149 10 347 14 440 l7 167 -99 0 -100 0 -7 -252 c-4 -139 -9 -284 -13 -323 l-7 -70 -12 80 c-6 44 -27 191 -45 328 l-33 247 -67 0 -68 0 -7 -37 c-4 -21 -33 -168 -65 -328 l-58 -290 5 245 c2 135 7 284 10 333 l6 87 -101 0 -101 0 0 -27z"/>
 </g>

</svg>
