<?xml version="1.0" standalone="no"?>
<!DOCTYPE svg PUBLIC "-//W3C//DTD SVG 20010904//EN"
 "http://www.w3.org/TR/2001/REC-SVG-20010904/DTD/svg10.dtd">
<svg version="1.0" xmlns="http://www.w3.org/2000/svg"
 width="1000.000000pt" height="1000.000000pt" viewBox="0 0 1000.000000 1000.000000"
 preserveAspectRatio="xMidYMid meet">
<metadata>
Created by potrace 1.11, written by Peter Selinger 2001-2013
</metadata>
<g transform="translate(0.000000,1000.000000) scale(0.100000,-0.100000)"
fill="#000000" stroke="none">
<path d="M4595 9650 c-38 -5 -92 -11 -120 -15 -27 -3 -70 -8 -95 -11 -25 -3
-81 -11 -125 -19 -44 -8 -96 -17 -115 -20 -62 -10 -93 -16 -220 -47 -69 -16
-129 -31 -135 -32 -5 -1 -15 -5 -21 -8 -6 -4 -26 -10 -45 -13 -55 -10 -390
-124 -427 -145 -18 -11 -31 -16 -27 -11 3 5 -7 4 -22 -4 -49 -23 -122 -55
-127 -55 -8 0 -180 -84 -186 -90 -3 -4 -36 -21 -75 -39 -38 -18 -78 -40 -87
-49 -10 -8 -18 -12 -18 -9 0 10 -119 -59 -131 -76 -3 -5 -9 -7 -11 -5 -6 3
-300 -186 -321 -206 -7 -6 -42 -33 -79 -59 -38 -27 -68 -52 -68 -56 0 -4 -10
-12 -23 -18 -24 -11 -62 -41 -108 -85 -16 -16 -32 -28 -36 -28 -11 0 -82 -66
-251 -234 -158 -156 -242 -248 -242 -265 0 -7 -4 -10 -9 -6 -5 3 -12 -4 -16
-15 -4 -11 -11 -18 -16 -15 -5 4 -9 0 -9 -9 0 -8 -4 -16 -8 -18 -29 -12 -402
-528 -402 -557 0 -5 -7 -14 -15 -21 -8 -7 -12 -16 -9 -21 3 -5 1 -9 -3 -9 -10
0 -79 -121 -75 -132 1 -5 -3 -8 -9 -8 -5 0 -8 -4 -5 -9 4 -5 2 -11 -2 -13 -9
-3 -126 -229 -160 -308 -11 -25 -29 -67 -41 -94 -11 -27 -21 -57 -21 -67 0
-11 -4 -19 -8 -19 -5 0 -15 -19 -22 -42 -8 -24 -27 -74 -42 -113 -16 -38 -29
-72 -29 -75 0 -3 -15 -52 -34 -110 -18 -58 -41 -136 -49 -175 -9 -38 -20 -81
-25 -95 -22 -62 -83 -391 -108 -585 -23 -179 -26 -856 -5 -1025 8 -58 15 -118
17 -135 7 -56 16 -110 31 -185 9 -41 18 -92 21 -113 3 -21 20 -100 39 -175 19
-75 37 -147 39 -159 3 -12 11 -35 17 -50 7 -16 12 -32 12 -38 0 -5 22 -74 48
-152 83 -250 170 -449 320 -733 75 -142 231 -393 248 -398 6 -2 10 -8 10 -13
0 -9 36 -65 50 -79 3 -3 16 -21 30 -40 13 -19 28 -39 32 -45 38 -47 148 -188
167 -213 14 -19 30 -31 38 -27 8 2 11 1 8 -4 -3 -5 19 -38 49 -73 81 -94 351
-358 366 -358 7 0 10 -3 7 -6 -6 -6 130 -121 253 -214 18 -14 38 -30 44 -35
23 -21 273 -195 280 -195 3 0 32 -18 65 -40 33 -22 73 -45 88 -52 15 -7 30
-16 33 -19 13 -17 377 -202 397 -202 7 0 13 -3 13 -7 0 -4 33 -19 73 -34 39
-15 90 -37 112 -49 22 -12 40 -20 40 -18 0 1 11 -2 25 -7 97 -37 320 -110 320
-105 0 3 6 1 13 -4 6 -5 25 -10 41 -12 16 -2 40 -10 53 -18 13 -8 23 -13 23
-10 0 3 21 -1 46 -9 26 -7 50 -12 54 -9 4 3 21 -2 37 -10 16 -8 56 -17 88 -21
33 -4 65 -10 70 -14 6 -4 42 -13 80 -19 39 -6 83 -13 99 -16 409 -78 1158 -73
1551 11 39 8 90 17 115 20 24 3 50 10 57 15 7 6 17 8 22 5 5 -4 12 -2 16 4 4
6 10 8 15 5 4 -3 26 2 48 9 22 8 43 12 46 9 3 -3 12 -1 19 5 8 7 17 9 20 6 3
-4 14 -3 24 1 21 9 29 12 43 14 6 0 10 6 10 12 0 11 -18 9 -130 -14 -239 -50
-367 -69 -670 -97 -118 -11 -224 -20 -236 -20 -19 0 -21 9 -33 138 -6 75 -19
178 -28 227 -25 139 -29 381 -8 490 35 193 121 392 285 665 205 340 474 542
870 653 69 20 143 39 165 42 112 20 354 78 389 94 85 37 190 152 331 361 258
382 542 632 737 647 71 6 121 -6 162 -38 21 -16 26 -29 26 -63 0 -50 -30 -112
-125 -256 -34 -52 -102 -162 -150 -245 -105 -179 -151 -249 -210 -315 -46 -52
-80 -108 -71 -117 12 -12 55 9 99 47 54 48 112 133 192 280 31 58 110 184 174
280 120 177 152 233 176 300 20 58 -5 103 -93 165 -101 71 -106 83 -98 219 3
61 11 214 16 340 11 253 39 458 77 581 31 99 44 125 83 164 25 25 40 31 74 31
100 0 143 -115 172 -449 8 -96 19 -193 24 -215 5 -23 12 -79 15 -126 4 -47 13
-121 20 -165 21 -124 30 -426 16 -515 -31 -193 -94 -383 -261 -790 -10 -25
-58 -148 -106 -275 -130 -342 -173 -424 -277 -530 -103 -105 -263 -230 -587
-460 -107 -76 -244 -175 -305 -220 -60 -45 -153 -111 -206 -148 -159 -109
-219 -190 -260 -349 -23 -86 -27 -149 -14 -206 7 -31 10 -33 44 -29 35 5 110
29 134 44 7 4 19 8 27 10 8 1 83 31 165 67 217 94 461 224 670 356 13 8 70 47
125 85 56 39 113 78 127 87 15 9 41 31 59 47 18 17 37 31 42 31 5 0 30 20 54
45 25 25 48 45 52 45 3 0 15 8 27 18 57 46 70 62 63 73 -4 8 -3 9 5 5 6 -4 24
2 39 14 38 30 283 273 347 345 29 33 72 80 94 105 22 25 41 50 41 55 0 6 20
31 43 57 67 74 88 100 116 143 14 22 30 45 36 51 31 34 150 215 242 369 62
105 243 454 243 470 0 3 18 48 41 101 23 53 42 101 43 108 1 6 5 17 9 24 5 6
5 12 0 12 -4 0 -3 4 3 8 9 6 37 78 48 123 2 8 11 31 19 51 9 20 13 39 10 42
-3 3 -1 11 5 18 9 11 34 89 47 144 2 11 20 80 39 154 18 74 37 156 40 182 4
26 9 53 11 60 8 22 35 191 41 253 3 33 10 89 16 125 18 110 19 796 2 930 -7
63 -16 133 -18 155 -9 83 -19 144 -47 285 -16 80 -31 154 -33 165 -10 59 -74
282 -127 440 -59 176 -71 208 -108 290 -11 22 -24 56 -32 75 -7 19 -18 42 -26
51 -7 8 -13 21 -13 29 0 21 -185 381 -202 391 -5 3 -8 8 -7 10 2 2 -10 27 -26
54 -27 47 -48 79 -170 263 -27 39 -52 72 -57 72 -4 0 -8 6 -8 13 0 6 -39 59
-86 117 -47 58 -97 121 -112 140 -14 19 -42 50 -60 68 -19 17 -31 32 -27 32
19 0 -380 392 -450 442 -5 4 -30 26 -55 48 -25 22 -57 47 -71 55 -15 8 -29 21
-33 30 -3 9 -10 14 -15 10 -6 -3 -13 0 -18 8 -4 7 -33 30 -63 52 -30 22 -57
42 -60 45 -12 13 -70 50 -78 50 -5 0 -17 9 -27 20 -10 11 -41 34 -69 51 -28
16 -78 47 -111 68 -147 93 -322 184 -337 175 -6 -4 -8 -3 -5 3 18 29 -642 296
-835 337 -13 3 -64 16 -115 29 -51 14 -94 22 -98 19 -3 -3 -5 -1 -5 4 0 5 -10
10 -23 11 -12 0 -83 13 -157 27 -300 58 -417 68 -820 71 -206 2 -406 0 -445
-5z m609 -422 c3 -123 9 -280 13 -350 l6 -128 -81 0 -80 0 -7 231 c-4 128 -11
225 -16 218 -4 -8 -13 -59 -19 -114 -6 -55 -19 -154 -28 -220 l-17 -120 -55 0
c-55 0 -55 0 -61 35 -31 178 -73 377 -81 385 -7 7 -8 -61 -4 -212 l6 -223 -79
0 -78 0 -7 293 c-4 160 -9 318 -13 350 l-6 57 130 0 131 0 22 -146 c13 -80 26
-142 30 -137 5 4 14 71 22 148 l13 140 115 6 c63 3 120 6 126 7 8 1 13 -67 18
-220z m383 170 l152 -21 -6 -61 c-3 -34 -8 -64 -12 -68 -3 -4 -48 -1 -99 6
-105 15 -98 19 -105 -65 l-5 -57 61 -6 c34 -4 72 -10 84 -13 22 -5 23 -7 7
-109 l-4 -31 -82 13 c-45 7 -83 12 -84 11 -1 -1 -6 -35 -11 -74 l-9 -73 30 -5
c55 -9 161 -25 168 -25 4 0 2 -15 -3 -32 -5 -18 -9 -48 -9 -67 l0 -33 -57 6
c-32 4 -114 14 -182 24 l-123 17 5 60 c3 33 15 128 26 210 11 83 28 210 37
283 20 156 -5 143 221 110z m570 -119 c18 -5 46 -26 63 -45 48 -55 45 -86 -42
-448 -18 -76 -27 -95 -59 -127 -54 -54 -99 -59 -242 -25 -62 14 -120 26 -129
26 -10 0 -18 6 -18 13 0 6 23 111 50 232 28 121 60 261 71 310 11 50 24 100
29 111 l8 22 119 -29 c65 -16 132 -34 150 -40z m-2115 0 c71 -51 78 -160 16
-251 l-19 -27 37 -41 c20 -22 40 -40 45 -40 5 0 9 24 9 54 l0 54 44 11 c77 19
76 20 76 -67 0 -44 -6 -100 -14 -125 l-14 -47 42 -47 c22 -27 44 -49 49 -51 4
-2 7 -9 7 -16 0 -8 -29 -19 -72 -29 -66 -14 -73 -14 -84 1 -10 14 -15 13 -45
-13 -46 -38 -90 -55 -144 -55 -109 0 -175 84 -175 220 0 61 4 73 35 120 19 29
32 57 28 63 -4 7 -19 28 -34 47 -56 73 -59 144 -10 199 55 62 165 81 223 40z
m2453 -91 c39 -12 71 -23 72 -23 2 -1 -47 -150 -107 -331 -60 -181 -110 -330
-110 -331 0 -3 -143 47 -148 51 -5 6 211 656 218 656 3 0 37 -10 75 -22z m397
-157 c128 -55 172 -164 113 -281 -14 -28 -27 -50 -30 -50 -16 0 -135 66 -135
75 0 6 10 31 21 55 14 30 18 49 12 59 -11 18 -46 31 -60 23 -12 -8 -169 -339
-179 -376 -4 -17 0 -28 17 -39 31 -22 55 -7 82 51 35 75 31 73 97 41 33 -16
65 -29 70 -29 15 0 12 -13 -14 -70 -48 -102 -113 -147 -202 -137 -61 6 -133
45 -168 90 -28 35 -31 46 -31 105 1 56 7 80 39 147 82 171 116 246 116 254 0
9 70 76 95 89 31 17 109 14 157 -7z m-3632 -255 c61 -131 110 -242 110 -247 0
-15 18 -10 90 26 38 19 72 35 74 35 5 0 56 -109 56 -119 0 -4 -19 -15 -42 -26
-24 -10 -90 -40 -147 -67 -57 -26 -107 -48 -110 -48 -3 0 -24 40 -45 88 -22
48 -84 184 -139 302 -54 118 -101 221 -104 227 -5 14 111 73 135 70 7 -1 62
-109 122 -241z m-448 46 c7 -11 34 -43 59 -73 117 -136 240 -281 304 -358 l69
-83 -25 -19 c-13 -10 -46 -28 -73 -41 l-49 -23 -16 25 c-9 13 -25 35 -37 48
l-20 24 -47 -29 c-26 -16 -45 -31 -43 -34 2 -2 14 -27 25 -56 l20 -52 -65 -35
c-35 -20 -68 -36 -73 -36 -4 0 -13 15 -19 33 -23 70 -95 278 -152 438 -60 171
-68 199 -51 199 5 0 42 20 83 44 83 51 92 53 110 28z m4580 -67 c38 -25 75
-48 83 -52 24 -9 39 34 -197 -558 -22 -55 -41 -102 -44 -104 -4 -4 -144 78
-144 85 0 2 12 28 26 56 l26 51 -23 18 c-55 42 -67 44 -88 18 -10 -13 -27 -35
-38 -48 l-19 -24 -67 43 c-37 23 -67 45 -67 48 1 4 30 39 67 77 36 39 111 120
166 180 121 132 239 255 245 255 3 0 36 -20 74 -45z m-4923 -187 l41 -53 -40
-33 -39 -33 42 -54 c174 -222 240 -305 266 -335 17 -19 30 -39 30 -45 0 -9
-67 -64 -108 -89 -10 -6 -21 -1 -38 20 -22 27 -284 360 -309 393 -9 12 -18 9
-53 -19 -22 -18 -42 -31 -44 -29 -2 2 -21 26 -42 53 l-40 49 35 26 c18 14 81
65 139 113 59 47 109 87 113 87 4 1 25 -23 47 -51z m5299 -73 c28 -22 51 -42
51 -45 0 -3 -76 -101 -169 -217 -94 -117 -170 -216 -170 -220 0 -5 29 -30 65
-58 35 -27 65 -52 65 -55 0 -3 -20 -27 -43 -54 l-42 -48 -116 91 c-64 50 -122
97 -128 105 -15 18 -35 -8 350 478 39 50 66 75 74 70 6 -4 35 -25 63 -47z
m-5513 -367 c105 -111 195 -207 200 -213 6 -6 26 -28 45 -48 l34 -37 -59 -60
c-33 -33 -63 -60 -67 -60 -4 0 -85 45 -179 101 -94 55 -173 98 -175 96 -3 -2
35 -47 84 -98 48 -52 108 -116 132 -142 l43 -48 -48 -49 c-27 -28 -54 -50 -60
-50 -7 0 -34 24 -61 53 -46 49 -131 140 -303 322 -128 136 -123 114 -51 182
35 32 67 57 72 55 5 -1 76 -40 157 -86 156 -87 181 -99 181 -89 0 3 -42 49
-94 102 -51 53 -107 112 -124 131 l-31 35 52 53 c28 28 54 52 57 52 3 0 91
-91 195 -202z m6066 -144 c15 -7 45 -34 68 -60 87 -99 79 -208 -21 -294 l-41
-35 -53 60 -54 60 47 47 c46 46 46 47 29 72 -22 35 -43 32 -91 -10 -22 -19
-93 -81 -157 -137 -66 -56 -118 -109 -118 -118 0 -26 27 -48 52 -44 12 3 33
15 47 28 71 63 61 63 121 -5 l54 -61 -40 -34 c-59 -51 -112 -75 -164 -75 -154
0 -264 197 -177 318 35 50 323 293 355 300 15 3 32 7 37 9 16 6 77 -6 106 -21z
m-6620 -180 c7 -9 -5 -32 -45 -81 -30 -37 -55 -72 -56 -78 -1 -5 20 -27 48
-47 l51 -38 51 65 c57 72 55 72 123 12 l37 -32 -50 -63 c-27 -34 -50 -66 -50
-70 0 -7 59 -53 106 -84 6 -4 35 24 68 68 31 40 62 74 69 74 7 -1 32 -18 56
-40 l44 -38 -68 -89 c-38 -48 -72 -90 -75 -93 -3 -3 -22 -26 -43 -52 l-38 -48
-80 63 c-43 34 -108 85 -142 112 -35 28 -121 95 -190 149 -70 55 -127 104
-127 109 0 5 28 43 63 86 34 42 82 102 106 133 l43 58 45 -32 c24 -18 48 -38
54 -44z m7001 -289 c52 -71 97 -135 101 -142 7 -11 -80 -83 -100 -83 -6 0 -34
34 -63 75 l-53 75 -26 -16 c-14 -9 -39 -26 -55 -39 l-30 -24 30 -43 c16 -24
37 -52 47 -62 18 -21 23 -46 8 -46 -4 0 -25 -13 -46 -30 -21 -16 -42 -30 -47
-30 -4 0 -23 21 -41 46 -66 96 -55 93 -125 42 l-61 -45 60 -83 c34 -45 59 -83
57 -84 -1 -1 -27 -19 -56 -40 -29 -21 -54 -37 -55 -35 -2 2 -49 68 -105 147
-83 115 -100 145 -90 155 7 7 119 89 248 181 129 93 249 179 265 192 17 13 33
23 37 21 3 -1 49 -60 100 -132z m-4517 16 c105 -21 237 -60 440 -130 66 -23
143 -48 170 -56 28 -8 91 -26 140 -40 104 -29 104 -29 250 -54 238 -41 660
-54 660 -21 0 8 -11 16 -25 18 -14 2 -32 10 -40 17 -16 14 -111 37 -255 61
-154 26 -205 37 -211 45 -9 15 58 48 166 83 542 174 1068 92 1317 -206 45 -54
76 -116 101 -203 23 -78 43 -236 37 -287 -3 -18 -9 -71 -15 -118 -24 -190
-111 -465 -285 -910 -116 -295 -154 -404 -169 -478 -32 -167 -45 -285 -51
-462 -4 -102 -8 -192 -10 -200 -2 -8 -9 -88 -15 -176 -5 -89 -17 -213 -26
-275 -8 -63 -19 -143 -24 -179 -11 -82 -52 -216 -86 -285 -38 -79 -124 -169
-191 -200 -49 -23 -66 -27 -133 -23 -69 3 -81 6 -122 38 -50 38 -118 125 -166
211 -60 106 -130 294 -227 604 -65 207 -100 288 -160 375 -29 41 -58 92 -65
114 -18 54 7 86 83 105 48 13 74 13 204 0 81 -9 150 -14 152 -12 3 2 -6 15
-20 29 -74 79 -301 118 -454 79 -137 -36 -265 -118 -348 -223 -72 -92 -73 -94
-243 -577 -124 -348 -150 -419 -192 -502 -115 -234 -292 -320 -439 -214 -86
62 -192 242 -234 399 -5 17 -14 49 -19 70 -28 101 -52 276 -61 447 -39 732
-55 850 -149 1085 -21 52 -52 131 -69 175 -16 44 -51 134 -77 200 -73 188
-151 425 -197 600 l-42 160 1 185 c0 173 2 190 27 267 62 185 194 311 422 402
222 89 416 107 650 62z m-2778 -123 c25 -11 208 -124 317 -197 81 -54 113
-132 82 -206 -24 -58 -136 -235 -148 -235 -12 0 -544 334 -566 355 -17 15 -14
21 74 156 34 53 75 106 91 117 32 25 105 29 150 10z m7539 -279 l36 -72 -134
-135 c-73 -75 -140 -143 -148 -150 -8 -7 65 27 162 77 97 50 179 88 181 83 37
-60 67 -126 60 -132 -4 -4 -91 -50 -193 -103 -102 -52 -234 -120 -294 -151
-60 -31 -113 -56 -118 -56 -4 0 -25 34 -46 76 l-37 76 143 137 c78 75 142 140
142 144 0 5 -75 -30 -166 -77 -91 -47 -169 -86 -173 -86 -9 0 -77 127 -71 133
3 3 66 36 140 75 324 168 453 232 466 232 8 0 30 -32 50 -71z m271 -599 c31
-80 56 -156 57 -168 1 -20 -8 -27 -49 -43 -27 -10 -55 -17 -62 -15 -7 3 -17
23 -24 45 -7 23 -14 41 -16 41 -3 0 -116 -43 -251 -95 -136 -52 -253 -95 -260
-97 -12 -3 -46 72 -59 127 -5 23 -25 13 287 131 113 42 209 81 214 85 6 5 3
25 -7 50 -9 24 -16 44 -14 45 11 11 96 43 110 41 14 -2 32 -38 74 -147z
m-7719 -8 c7 -5 17 -24 22 -42 16 -57 -27 -100 -86 -86 -28 7 -54 57 -46 88
10 38 75 62 110 40z m-368 -104 c102 -33 197 -70 213 -80 35 -25 67 -87 67
-130 0 -36 -80 -288 -92 -288 -7 0 -583 191 -632 210 l-24 9 44 128 c47 134
64 169 98 193 56 41 89 36 326 -42z m8216 -235 c3 -16 12 -53 19 -83 42 -177
40 -243 -9 -289 -29 -27 -105 -51 -161 -51 -35 0 -49 6 -75 33 -17 17 -30 28
-29 22 6 -19 -32 -75 -60 -90 -16 -8 -73 -24 -128 -36 -54 -11 -108 -27 -121
-35 -25 -16 -23 -19 -41 56 -21 90 -21 92 29 111 25 10 79 25 121 34 100 21
114 32 105 77 l-6 35 -73 -17 c-182 -43 -212 -49 -218 -42 -6 7 -39 145 -36
149 1 1 103 24 227 53 124 28 270 62 325 75 127 30 123 30 131 -2z m-8075
-324 c48 -25 46 -100 -3 -125 -38 -20 -81 -4 -98 35 -25 61 43 122 101 90z
m-614 -167 c43 -27 102 -63 131 -81 l52 -33 93 16 c50 9 126 23 167 31 41 8
95 18 119 21 l43 7 -6 -39 c-3 -21 -8 -59 -11 -84 l-7 -45 -111 -19 c-62 -10
-118 -19 -125 -19 -8 0 -5 -9 8 -22 17 -18 41 -25 112 -34 50 -7 94 -14 98
-16 4 -2 2 -35 -4 -72 -10 -59 -14 -68 -34 -71 -21 -3 -226 21 -412 48 -36 6
-87 12 -115 15 -27 3 -70 8 -94 11 l-43 7 6 63 c9 84 13 95 40 89 11 -2 64 -9
116 -15 52 -6 103 -13 113 -16 44 -14 6 10 -114 72 -130 67 -131 68 -125 98 3
17 8 55 12 84 4 28 8 52 10 52 1 0 38 -22 81 -48z m8811 -79 c17 -105 36 -282
31 -287 -3 -3 -34 -8 -70 -12 -60 -6 -66 -5 -65 12 2 40 -16 164 -25 170 -9 5
-118 -12 -126 -20 -3 -2 1 -38 8 -80 7 -41 10 -78 7 -81 -3 -3 -34 -8 -70 -12
l-65 -6 -7 83 -8 82 -71 -7 c-40 -4 -75 -9 -78 -11 -3 -2 1 -46 9 -99 8 -53
13 -98 10 -100 -2 -2 -33 -7 -70 -11 l-65 -6 -7 68 c-4 38 -14 117 -23 176 -9
60 -15 110 -12 112 2 2 76 14 164 26 88 11 225 29 305 40 80 11 159 21 175 23
17 2 33 5 36 6 3 0 11 -29 17 -66z m-7575 -581 c57 -54 102 -190 132 -403 9
-57 23 -263 31 -457 l17 -353 -24 -25 c-13 -14 -52 -46 -87 -70 -63 -46 -92
-85 -92 -126 0 -41 59 -150 184 -338 68 -102 140 -216 161 -255 120 -225 205
-332 279 -351 47 -12 32 26 -52 125 -63 74 -127 172 -235 357 -41 72 -103 172
-136 222 -99 147 -131 240 -98 283 17 22 47 37 101 49 194 43 512 -207 801
-630 121 -176 131 -190 198 -259 116 -120 139 -130 472 -201 312 -66 516 -142
671 -248 150 -102 304 -260 391 -402 191 -308 285 -519 318 -709 32 -190 31
-221 -19 -596 -8 -60 -17 -147 -21 -191 l-7 -82 -61 4 c-129 9 -395 35 -457
44 -36 5 -101 14 -145 20 -44 6 -96 15 -115 20 -20 5 -51 12 -70 14 -67 9
-285 61 -432 103 -21 6 -22 24 -6 69 9 25 8 49 -6 120 -46 230 -71 260 -419
510 -76 54 -171 123 -210 152 -40 28 -144 103 -232 164 -204 143 -431 326
-516 414 -99 104 -150 201 -268 509 -46 120 -151 390 -219 566 -75 191 -128
371 -148 504 -18 116 -13 354 11 520 25 171 45 343 65 540 21 216 40 303 79
360 48 71 107 81 164 27z"/>
<path d="M5995 9113 c-10 -43 -32 -140 -50 -216 -31 -130 -31 -138 -14 -147
50 -28 71 -4 98 112 12 51 31 128 42 171 24 97 24 108 -1 135 -40 43 -57 30
-75 -55z"/>
<path d="M3916 9174 c-8 -21 24 -69 45 -69 10 0 14 12 14 40 0 36 -3 40 -26
43 -18 2 -29 -3 -33 -14z"/>
<path d="M3940 8843 c-14 -46 -2 -85 34 -108 33 -22 81 -8 81 23 0 21 -79 122
-95 122 -5 0 -14 -17 -20 -37z"/>
<path d="M2770 8667 c0 -14 90 -231 106 -255 14 -21 16 -21 45 -7 l30 16 -50
71 c-28 39 -61 83 -74 97 -12 14 -24 31 -26 36 -5 16 -31 50 -31 42z"/>
<path d="M7222 8501 c-45 -55 -82 -103 -82 -108 0 -5 13 -16 28 -25 l28 -17
62 125 c34 68 58 124 54 124 -4 0 -45 -45 -90 -99z"/>
<path d="M4952 6957 c-32 -34 -30 -92 5 -124 22 -21 33 -24 65 -20 68 9 96 64
63 126 -24 48 -96 58 -133 18z"/>
<path d="M4775 6804 c-22 -7 -48 -18 -57 -24 -27 -15 -180 -30 -315 -30 -68 0
-123 -4 -123 -8 0 -5 11 -19 24 -31 19 -18 33 -22 67 -19 39 3 44 1 47 -20 4
-26 44 -46 79 -39 17 3 30 -5 48 -29 31 -40 58 -43 115 -14 47 24 50 24 50 4
0 -13 6 -15 33 -9 61 13 108 6 162 -25 l53 -30 6 22 c3 13 6 57 6 99 l0 77
-30 6 c-20 3 -37 16 -48 36 -9 16 -30 34 -46 40 -16 5 -29 10 -30 9 -1 0 -19
-7 -41 -15z"/>
<path d="M5139 6789 c-16 -17 -29 -35 -29 -39 0 -4 -13 -10 -30 -13 l-30 -6 0
-96 c0 -52 4 -95 9 -95 4 0 36 14 70 32 60 31 63 31 112 19 46 -12 51 -12 64
5 13 18 15 18 55 -5 50 -28 81 -23 112 19 18 25 29 30 64 30 42 0 67 17 62 41
-2 10 10 14 43 14 46 0 95 27 83 46 -3 5 -50 9 -105 9 -146 0 -279 17 -348 45
-79 32 -97 31 -132 -6z"/>
<path d="M4985 6568 l0 -201 -55 -16 c-30 -9 -70 -24 -88 -34 -69 -37 -92
-127 -51 -194 28 -45 61 -58 97 -38 57 30 57 30 33 63 -29 42 -28 85 5 111 49
39 55 31 52 -69 l-3 -91 -60 -27 c-114 -50 -144 -120 -84 -195 25 -32 51 -34
90 -6 29 20 29 22 14 45 -23 36 -19 69 10 82 14 7 28 12 30 12 3 0 5 -30 5
-67 l0 -68 -52 -25 c-63 -31 -85 -72 -67 -127 14 -42 31 -50 64 -29 20 13 23
21 18 47 -4 21 -1 34 8 40 25 15 29 10 29 -35 0 -42 -3 -46 -40 -67 -50 -28
-60 -60 -33 -97 27 -37 47 -34 51 6 2 17 7 32 12 32 14 0 21 -31 14 -65 -5
-27 -13 -35 -60 -54 -30 -13 -54 -29 -54 -37 0 -17 -5 -18 58 6 28 11 52 19
53 17 0 -1 2 -45 4 -97 2 -52 4 -98 4 -102 1 -5 8 -8 16 -8 12 0 15 20 16 118
l0 117 47 30 c43 27 47 34 50 73 4 53 -14 56 -57 7 -36 -41 -41 -43 -41 -12 0
16 11 28 36 42 59 32 87 72 81 118 -3 21 -7 40 -9 43 -2 2 -21 -2 -41 -8 -31
-10 -37 -16 -37 -39 0 -32 -15 -46 -24 -23 -15 39 -6 53 52 79 117 53 151 119
96 184 -28 33 -59 39 -88 18 -17 -13 -17 -15 -2 -45 18 -36 10 -64 -24 -82
-35 -19 -40 -12 -40 58 l0 68 60 18 c74 22 132 63 150 105 13 32 9 107 -7 121
-4 5 -34 3 -66 -3 -52 -9 -57 -12 -50 -31 12 -38 5 -61 -29 -88 -18 -16 -36
-28 -40 -28 -4 0 -8 33 -8 74 l0 73 70 12 c102 16 172 46 224 95 49 45 58 79
35 130 -24 52 -152 79 -227 47 -35 -15 -52 -53 -35 -80 16 -24 96 -20 132 7
58 43 85 -7 31 -58 -34 -32 -97 -52 -172 -54 l-53 -1 -3 203 c-2 201 -2 202
-25 202 l-22 0 0 -202z"/>
<path d="M4715 6556 c-59 -26 -85 -78 -61 -123 20 -39 75 -89 115 -106 32 -13
37 -13 93 17 l60 30 -58 11 c-91 17 -124 39 -124 83 0 26 10 27 49 7 52 -26
104 -29 131 -7 22 18 23 22 12 46 -7 15 -28 34 -47 42 -43 17 -130 18 -170 0z"/>
<path d="M1289 7242 c-31 -26 -21 -42 48 -84 32 -19 115 -71 184 -115 l127
-81 11 25 c6 13 11 33 11 43 0 20 -52 64 -120 101 -19 11 -73 44 -119 74 -47
30 -93 55 -102 55 -9 0 -27 -8 -40 -18z"/>
<path d="M845 6289 c-9 -17 -15 -33 -12 -35 11 -11 413 -140 425 -137 22 8 15
71 -10 87 -33 20 -332 116 -362 116 -18 0 -30 -9 -41 -31z"/>
<path d="M9158 6007 c-50 -11 -55 -19 -39 -60 13 -32 34 -39 85 -26 48 12 69
38 60 74 -7 28 -24 30 -106 12z"/>
<path d="M6455 580 c3 -5 8 -10 11 -10 2 0 4 5 4 10 0 6 -5 10 -11 10 -5 0 -7
-4 -4 -10z"/>
<path d="M6360 555 c-35 -9 -40 -13 -23 -17 12 -3 33 0 47 7 13 7 28 10 32 7
4 -4 4 -1 0 6 -4 6 -8 11 -9 11 -1 -1 -22 -7 -47 -14z"/>
</g>
</svg>
